<svg xmlns="http://www.w3.org/2000/svg" width="660.00" height="324.00" viewBox="0 0 660.00 324.00" role="img" aria-labelledby="diagram-title"><title id="diagram-title">Bus transaction</title><g shape-rendering="geometricPrecision" text-rendering="optimizeLegibility" font-family="Inter, ui-sans-serif, system-ui, sans-serif"><text x="34.00" y="34.00" font-size="23.00" text-anchor="start" dominant-baseline="middle" fill="#172033" font-weight="650" font-style="normal">Bus transaction</text><line x1="178.00" y1="68.00" x2="178.00" y2="252.00" fill="none" stroke="#d9e0ec" stroke-width="0.80" stroke-opacity="1.000" stroke-linecap="round" stroke-linejoin="round"/><text x="201.00" y="69.00" font-size="10.00" text-anchor="middle" dominant-baseline="middle" fill="#657089" font-weight="400" font-style="normal">0</text><line x1="224.00" y1="68.00" x2="224.00" y2="252.00" fill="none" stroke="#d9e0ec" stroke-width="0.80" stroke-opacity="1.000" stroke-linecap="round" stroke-linejoin="round"/><text x="247.00" y="69.00" font-size="10.00" text-anchor="middle" dominant-baseline="middle" fill="#657089" font-weight="400" font-style="normal">1</text><line x1="270.00" y1="68.00" x2="270.00" y2="252.00" fill="none" stroke="#d9e0ec" stroke-width="0.80" stroke-opacity="1.000" stroke-linecap="round" stroke-linejoin="round"/><text x="293.00" y="69.00" font-size="10.00" text-anchor="middle" dominant-baseline="middle" fill="#657089" font-weight="400" font-style="normal">2</text><line x1="316.00" y1="68.00" x2="316.00" y2="252.00" fill="none" stroke="#d9e0ec" stroke-width="0.80" stroke-opacity="1.000" stroke-linecap="round" stroke-linejoin="round"/><text x="339.00" y="69.00" font-size="10.00" text-anchor="middle" dominant-baseline="middle" fill="#657089" font-weight="400" font-style="normal">3</text><line x1="362.00" y1="68.00" x2="362.00" y2="252.00" fill="none" stroke="#d9e0ec" stroke-width="0.80" stroke-opacity="1.000" stroke-linecap="round" stroke-linejoin="round"/><text x="385.00" y="69.00" font-size="10.00" text-anchor="middle" dominant-baseline="middle" fill="#657089" font-weight="400" font-style="normal">4</text><line x1="408.00" y1="68.00" x2="408.00" y2="252.00" fill="none" stroke="#d9e0ec" stroke-width="0.80" stroke-opacity="1.000" stroke-linecap="round" stroke-linejoin="round"/><text x="431.00" y="69.00" font-size="10.00" text-anchor="middle" dominant-baseline="middle" fill="#657089" font-weight="400" font-style="normal">5</text><line x1="454.00" y1="68.00" x2="454.00" y2="252.00" fill="none" stroke="#d9e0ec" stroke-width="0.80" stroke-opacity="1.000" stroke-linecap="round" stroke-linejoin="round"/><text x="477.00" y="69.00" font-size="10.00" text-anchor="middle" dominant-baseline="middle" fill="#657089" font-weight="400" font-style="normal">6</text><line x1="500.00" y1="68.00" x2="500.00" y2="252.00" fill="none" stroke="#d9e0ec" stroke-width="0.80" stroke-opacity="1.000" stroke-linecap="round" stroke-linejoin="round"/><text x="523.00" y="69.00" font-size="10.00" text-anchor="middle" dominant-baseline="middle" fill="#657089" font-weight="400" font-style="normal">7</text><line x1="546.00" y1="68.00" x2="546.00" y2="252.00" fill="none" stroke="#d9e0ec" stroke-width="0.80" stroke-opacity="1.000" stroke-linecap="round" stroke-linejoin="round"/><text x="18.00" y="103.00" font-size="13.00" text-anchor="start" dominant-baseline="middle" fill="#172033" font-weight="650" font-style="normal">clk</text><line x1="178.00" y1="96.00" x2="546.00" y2="96.00" fill="none" stroke="#d9e0ec" stroke-width="1.00" stroke-opacity="1.000" stroke-linecap="round" stroke-linejoin="round"/><polyline points="178.00,109.00 178.00,83.00 201.00,83.00 201.00,109.00 224.00,109.00" fill="none" stroke="#334155" stroke-width="2.00" stroke-opacity="1.000" stroke-linecap="round" stroke-linejoin="round"/><polyline points="224.00,109.00 224.00,83.00 247.00,83.00 247.00,109.00 270.00,109.00" fill="none" stroke="#334155" stroke-width="2.00" stroke-opacity="1.000" stroke-linecap="round" stroke-linejoin="round"/><polyline points="270.00,109.00 270.00,83.00 293.00,83.00 293.00,109.00 316.00,109.00" fill="none" stroke="#334155" stroke-width="2.00" stroke-opacity="1.000" stroke-linecap="round" stroke-linejoin="round"/><polyline points="316.00,109.00 316.00,83.00 339.00,83.00 339.00,109.00 362.00,109.00" fill="none" stroke="#334155" stroke-width="2.00" stroke-opacity="1.000" stroke-linecap="round" stroke-linejoin="round"/><polyline points="362.00,109.00 362.00,83.00 385.00,83.00 385.00,109.00 408.00,109.00" fill="none" stroke="#334155" stroke-width="2.00" stroke-opacity="1.000" stroke-linecap="round" stroke-linejoin="round"/><polyline points="408.00,109.00 408.00,83.00 431.00,83.00 431.00,109.00 454.00,109.00" fill="none" stroke="#334155" stroke-width="2.00" stroke-opacity="1.000" stroke-linecap="round" stroke-linejoin="round"/><polyline points="454.00,109.00 454.00,83.00 477.00,83.00 477.00,109.00 500.00,109.00" fill="none" stroke="#334155" stroke-width="2.00" stroke-opacity="1.000" stroke-linecap="round" stroke-linejoin="round"/><polyline points="500.00,109.00 500.00,83.00 523.00,83.00 523.00,109.00 546.00,109.00" fill="none" stroke="#334155" stroke-width="2.00" stroke-opacity="1.000" stroke-linecap="round" stroke-linejoin="round"/><text x="18.00" y="144.00" font-size="9.50" text-anchor="start" dominant-baseline="middle" fill="#2563eb" font-weight="650" font-style="normal">bus</text><text x="18.00" y="161.00" font-size="13.00" text-anchor="start" dominant-baseline="middle" fill="#172033" font-weight="650" font-style="normal">data</text><line x1="178.00" y1="154.00" x2="546.00" y2="154.00" fill="none" stroke="#d9e0ec" stroke-width="1.00" stroke-opacity="1.000" stroke-linecap="round" stroke-linejoin="round"/><rect x="179.00" y="140.00" width="44.00" height="28.00" rx="4.00" fill="#dc2626" fill-opacity="0.140" stroke="#dc2626" stroke-width="1.20" stroke-opacity="1.000" stroke-linecap="round" stroke-linejoin="round"/><line x1="183.00" y1="144.00" x2="219.00" y2="164.00" fill="none" stroke="#dc2626" stroke-width="1.00" stroke-opacity="1.000" stroke-linecap="round" stroke-linejoin="round"/><line x1="183.00" y1="164.00" x2="219.00" y2="144.00" fill="none" stroke="#dc2626" stroke-width="1.00" stroke-opacity="1.000" stroke-linecap="round" stroke-linejoin="round"/><polyline points="224.00,154.00 224.00,154.00 270.00,154.00" fill="none" stroke="#334155" stroke-width="2.00" stroke-opacity="1.000" stroke-linecap="round" stroke-linejoin="round"/><rect x="271.00" y="140.00" width="44.00" height="28.00" rx="6.00" fill="#dbeafe" fill-opacity="1.000" stroke="#2563eb" stroke-width="1.20" stroke-opacity="1.000" stroke-linecap="round" stroke-linejoin="round"/><text x="293.00" y="154.00" font-size="10.00" text-anchor="middle" dominant-baseline="middle" fill="#172033" font-weight="650" font-style="normal">head</text><rect x="317.00" y="140.00" width="44.00" height="28.00" rx="6.00" fill="#dbeafe" fill-opacity="1.000" stroke="#2563eb" stroke-width="1.20" stroke-opacity="1.000" stroke-linecap="round" stroke-linejoin="round"/><text x="339.00" y="154.00" font-size="10.00" text-anchor="middle" dominant-baseline="middle" fill="#172033" font-weight="650" font-style="normal">body</text><rect x="363.00" y="140.00" width="44.00" height="28.00" rx="6.00" fill="#dbeafe" fill-opacity="1.000" stroke="#2563eb" stroke-width="1.20" stroke-opacity="1.000" stroke-linecap="round" stroke-linejoin="round"/><text x="385.00" y="154.00" font-size="10.00" text-anchor="middle" dominant-baseline="middle" fill="#172033" font-weight="650" font-style="normal">tail</text><rect x="409.00" y="140.00" width="44.00" height="28.00" rx="4.00" fill="#dc2626" fill-opacity="0.140" stroke="#dc2626" stroke-width="1.20" stroke-opacity="1.000" stroke-linecap="round" stroke-linejoin="round"/><line x1="413.00" y1="144.00" x2="449.00" y2="164.00" fill="none" stroke="#dc2626" stroke-width="1.00" stroke-opacity="1.000" stroke-linecap="round" stroke-linejoin="round"/><line x1="413.00" y1="164.00" x2="449.00" y2="144.00" fill="none" stroke="#dc2626" stroke-width="1.00" stroke-opacity="1.000" stroke-linecap="round" stroke-linejoin="round"/><polyline points="454.00,154.00 454.00,154.00 500.00,154.00" fill="none" stroke="#334155" stroke-width="2.00" stroke-opacity="1.000" stroke-linecap="round" stroke-linejoin="round"/><polyline points="500.00,154.00 500.00,154.00 546.00,154.00" fill="none" stroke="#334155" stroke-width="2.00" stroke-opacity="1.000" stroke-linecap="round" stroke-linejoin="round"/><text x="18.00" y="202.00" font-size="9.50" text-anchor="start" dominant-baseline="middle" fill="#2563eb" font-weight="650" font-style="normal">bus</text><text x="18.00" y="219.00" font-size="13.00" text-anchor="start" dominant-baseline="middle" fill="#172033" font-weight="650" font-style="normal">valid</text><line x1="178.00" y1="212.00" x2="546.00" y2="212.00" fill="none" stroke="#d9e0ec" stroke-width="1.00" stroke-opacity="1.000" stroke-linecap="round" stroke-linejoin="round"/><polyline points="178.00,225.00 178.00,225.00 224.00,225.00" fill="none" stroke="#334155" stroke-width="2.00" stroke-opacity="1.000" stroke-linecap="round" stroke-linejoin="round"/><polyline points="224.00,225.00 224.00,225.00 270.00,225.00" fill="none" stroke="#334155" stroke-width="2.00" stroke-opacity="1.000" stroke-linecap="round" stroke-linejoin="round"/><polyline points="270.00,225.00 270.00,199.00 316.00,199.00" fill="none" stroke="#334155" stroke-width="2.00" stroke-opacity="1.000" stroke-linecap="round" stroke-linejoin="round"/><polyline points="316.00,199.00 316.00,199.00 362.00,199.00" fill="none" stroke="#334155" stroke-width="2.00" stroke-opacity="1.000" stroke-linecap="round" stroke-linejoin="round"/><polyline points="362.00,199.00 362.00,199.00 408.00,199.00" fill="none" stroke="#334155" stroke-width="2.00" stroke-opacity="1.000" stroke-linecap="round" stroke-linejoin="round"/><polyline points="408.00,199.00 408.00,225.00 454.00,225.00" fill="none" stroke="#334155" stroke-width="2.00" stroke-opacity="1.000" stroke-linecap="round" stroke-linejoin="round"/><polyline points="454.00,225.00 454.00,225.00 500.00,225.00" fill="none" stroke="#334155" stroke-width="2.00" stroke-opacity="1.000" stroke-linecap="round" stroke-linejoin="round"/><polyline points="500.00,225.00 500.00,225.00 546.00,225.00" fill="none" stroke="#334155" stroke-width="2.00" stroke-opacity="1.000" stroke-linecap="round" stroke-linejoin="round"/><ellipse cx="293.00" cy="192.00" rx="7.00" ry="7.00" fill="#ffffff" fill-opacity="1.000" stroke="#2563eb" stroke-width="1.20" stroke-opacity="1.000" stroke-linecap="round" stroke-linejoin="round"/><text x="293.00" y="192.00" font-size="9.00" text-anchor="middle" dominant-baseline="middle" fill="#2563eb" font-weight="650" font-style="normal">a</text><ellipse cx="431.00" cy="192.00" rx="7.00" ry="7.00" fill="#ffffff" fill-opacity="1.000" stroke="#2563eb" stroke-width="1.20" stroke-opacity="1.000" stroke-linecap="round" stroke-linejoin="round"/><text x="431.00" y="192.00" font-size="9.00" text-anchor="middle" dominant-baseline="middle" fill="#2563eb" font-weight="650" font-style="normal">b</text><polyline points="293.00,192.00 293.00,170.00 431.00,170.00 431.00,192.00" fill="none" stroke="#2563eb" stroke-width="1.40" stroke-opacity="1.000" stroke-linecap="round" stroke-linejoin="round"/><polygon points="431.00,192.00 427.00,183.00 435.00,183.00" fill="#2563eb" fill-opacity="1.000" stroke="none"/></g></svg>